# Blender v2.79 (sub 0) OBJ File: 'block.blend'
# www.blender.org
o Cube
v 0.500000 -0.973641 -0.473640
v 0.473641 -1.000000 -0.473640
v 0.473641 -0.973641 -0.500000
v 0.500000 -0.973641 0.473641
v 0.473641 -0.973641 0.500000
v 0.473641 -1.000000 0.473641
v -0.473641 -0.973641 0.500000
v -0.500000 -0.973641 0.473640
v -0.473641 -1.000000 0.473640
v -0.473640 -0.973641 -0.500000
v -0.473640 -1.000000 -0.473641
v -0.500000 -0.973641 -0.473641
v 0.473641 0.973641 -0.500000
v 0.473641 1.000000 -0.473640
v 0.500000 0.973641 -0.473640
v 0.473640 0.973641 0.500000
v 0.500000 0.973641 0.473641
v 0.473640 1.000000 0.473641
v -0.500000 0.973641 0.473640
v -0.473641 0.973641 0.500000
v -0.473641 1.000000 0.473640
v -0.500000 0.973641 -0.473641
v -0.473640 1.000000 -0.473641
v -0.473640 0.973641 -0.500000
v 0.473641 -0.072188 -0.500000
v 0.473641 0.072188 -0.500000
v 0.500000 0.072188 -0.473640
v 0.500000 -0.072188 -0.473640
v 0.500000 -0.072188 0.473641
v 0.500000 0.072188 0.473641
v 0.473640 0.072188 0.500000
v 0.473640 -0.072188 0.500000
v -0.473641 -0.072188 0.500000
v -0.473641 0.072188 0.500000
v -0.500000 0.072188 0.473640
v -0.500000 -0.072188 0.473640
v -0.500000 -0.072188 -0.473641
v -0.500000 0.072188 -0.473641
v -0.473640 0.072188 -0.500000
v -0.473640 -0.072188 -0.500000
v 0.433631 0.000000 -0.457764
v 0.457764 0.000000 -0.433631
v 0.457764 0.000000 0.433631
v 0.433631 0.000000 0.457764
v -0.433631 0.000000 0.457764
v -0.457764 0.000000 0.433631
v -0.457764 0.000000 -0.433631
v -0.433631 0.000000 -0.457764
vt 0.000000 0.000000
vt 1.000000 0.000000
vt 1.000000 1.000000
vt 0.000000 1.000000
vt 0.000000 0.000000
vt 1.000000 0.000000
vt 1.000000 1.000000
vt 0.000000 1.000000
vt 0.000000 0.000000
vt 1.000000 0.000000
vt 1.000000 1.000000
vt 0.000000 1.000000
vt 0.000000 0.000000
vt 1.000000 0.000000
vt 1.000000 1.000000
vt 0.000000 1.000000
vt 0.000000 0.000000
vt 1.000000 0.000000
vt 1.000000 1.000000
vt 0.000000 1.000000
vt 0.000000 0.000000
vt 1.000000 0.000000
vt 1.000000 1.000000
vt 0.000000 0.000000
vt 1.000000 0.000000
vt 1.000000 1.000000
vt 0.000000 0.000000
vt 1.000000 0.000000
vt 0.000000 0.000000
vt 1.000000 0.000000
vt 1.000000 1.000000
vt 0.000000 0.000000
vt 1.000000 0.000000
vt 1.000000 1.000000
vt 0.000000 0.000000
vt 1.000000 0.000000
vt 1.000000 1.000000
vt 0.000000 0.000000
vt 1.000000 0.000000
vt 0.000000 0.000000
vt 1.000000 1.000000
vt 1.000000 0.000000
vt 0.000000 1.000000
vt 0.000000 1.000000
vt 0.000000 0.000000
vt 1.000000 0.000000
vt 0.000000 1.000000
vt 0.000000 0.000000
vt 1.000000 0.000000
vt 0.000000 1.000000
vt 0.000000 0.000000
vt 1.000000 1.000000
vt 0.000000 1.000000
vt 0.000000 0.000000
vt 1.000000 0.000000
vt 1.000000 1.000000
vt 0.000000 1.000000
vt 0.000000 0.000000
vt 1.000000 1.000000
vt 0.000000 1.000000
vt 0.000000 0.000000
vt 1.000000 0.000000
vt 0.000000 1.000000
vt 1.000000 0.000000
vt 1.000000 1.000000
vt 0.000000 1.000000
vt 1.000000 0.000000
vt 1.000000 1.000000
vt 0.000000 1.000000
vt 0.000000 0.000000
vt 1.000000 0.000000
vt 0.000000 1.000000
vt 0.000000 0.000000
vt 0.000000 1.000000
vt 0.000000 0.000000
vt 1.000000 0.000000
vt 0.000000 1.000000
vt 1.000000 0.000000
vt 1.000000 1.000000
vt 0.000000 1.000000
vt 0.000000 0.000000
vt 1.000000 0.000000
vt 1.000000 1.000000
vt 0.000000 1.000000
vt 0.000000 0.000000
vt 1.000000 0.000000
vt 1.000000 1.000000
vt 0.000000 1.000000
vt 0.000000 0.000000
vt 1.000000 0.000000
vt 1.000000 1.000000
vt 0.000000 1.000000
vt 1.000000 0.000000
vt 1.000000 1.000000
vt 0.000000 1.000000
vt 0.000000 0.000000
vt 1.000000 0.000000
vt 1.000000 1.000000
vt 0.000000 1.000000
vt 1.000000 0.000000
vt 1.000000 1.000000
vt 0.000000 1.000000
vt 0.000000 0.000000
vt 1.000000 0.000000
vt 1.000000 1.000000
vt 0.000000 1.000000
vt 0.000000 0.000000
vt 1.000000 0.000000
vt 1.000000 1.000000
vt 0.000000 1.000000
vt 0.000000 0.000000
vt 1.000000 0.000000
vt 1.000000 1.000000
vt 0.000000 1.000000
vt 1.000000 0.000000
vt 1.000000 1.000000
vt 0.000000 1.000000
vt 0.000000 0.000000
vt 1.000000 0.000000
vt 1.000000 1.000000
vt 0.000000 1.000000
vt 1.000000 0.000000
vt 1.000000 1.000000
vt 0.000000 1.000000
vt 0.000000 0.000000
vt 1.000000 0.000000
vt 1.000000 1.000000
vt 0.000000 1.000000
vt 0.000000 1.000000
vt 1.000000 0.000000
vt 1.000000 1.000000
vt 0.000000 0.000000
vt 1.000000 0.000000
vt 1.000000 1.000000
vt 0.000000 1.000000
vt 0.000000 0.000000
vt 1.000000 0.000000
vt 1.000000 1.000000
vt 0.000000 1.000000
vt 1.000000 1.000000
vt 0.000000 1.000000
vt 0.000000 0.000000
vt 1.000000 0.000000
vt 1.000000 1.000000
vt 0.000000 1.000000
vt 0.000000 0.000000
vt 1.000000 0.000000
vt 1.000000 1.000000
vt 0.000000 1.000000
vt 0.000000 0.000000
vt 1.000000 0.000000
vt 0.000000 0.000000
vt 1.000000 0.000000
vt 1.000000 1.000000
vt 0.000000 1.000000
vn 0.0000 0.0000 -1.0000
vn 0.0000 -1.0000 0.0000
vn -1.0000 -0.0000 -0.0000
vn 0.0000 1.0000 0.0000
vn -0.0000 -0.0000 1.0000
vn 0.5774 -0.5774 -0.5773
vn 0.5774 -0.5774 0.5773
vn -0.5774 -0.5774 0.5773
vn -0.5774 -0.5774 -0.5773
vn 0.5774 0.5774 -0.5773
vn 0.5774 0.5773 0.5774
vn -0.5774 0.5774 0.5773
vn -0.5774 0.5774 -0.5773
vn 0.7071 -0.7071 0.0000
vn 0.0000 -0.7071 -0.7071
vn 0.7071 0.0000 -0.7071
vn -0.0000 -0.7071 0.7071
vn 0.7071 0.0000 0.7071
vn -0.7071 -0.7071 -0.0000
vn -0.7071 -0.0000 0.7071
vn -0.7071 -0.0000 -0.7071
vn 0.7071 0.7071 0.0000
vn 0.0000 0.7071 -0.7071
vn -0.0000 0.7071 0.7071
vn -0.7071 0.7071 -0.0000
vn 1.0000 0.0000 0.0000
vn 0.8631 -0.5050 0.0000
vn -0.5506 -0.6274 -0.5506
vn -0.5506 -0.6274 0.5506
vn 0.5506 -0.6274 0.5506
vn 0.5506 -0.6274 -0.5506
vn -0.0000 -0.5050 0.8631
vn -0.8631 -0.5050 -0.0000
vn 0.0000 0.5050 -0.8631
vn 0.0000 -0.5050 -0.8631
vn -0.8631 0.5050 -0.0000
vn -0.0000 0.5050 0.8631
vn 0.5506 0.6274 -0.5506
vn 0.5506 0.6274 0.5506
vn -0.5506 0.6274 0.5506
vn -0.5506 0.6274 -0.5506
vn 0.8631 0.5050 0.0000
s off
f 25/1/1 3/2/1 10/3/1 40/4/1
f 2/5/2 6/6/2 9/7/2 11/8/2
f 35/9/3 19/10/3 22/11/3 38/12/3
f 14/13/4 23/14/4 21/15/4 18/16/4
f 31/17/5 16/18/5 20/19/5 34/20/5
f 1/21/6 2/22/6 3/23/6
f 4/24/7 5/25/7 6/26/7
f 7/27/8 8/28/8 9/7/8
f 10/29/9 11/30/9 12/31/9
f 13/32/10 14/33/10 15/34/10
f 16/35/11 17/36/11 18/37/11
f 19/38/12 20/39/12 21/15/12
f 22/40/13 23/14/13 24/41/13
f 1/21/14 4/42/14 6/26/14 2/43/14
f 2/5/15 11/30/15 10/3/15 3/44/15
f 26/45/16 13/46/16 15/34/16 27/47/16
f 5/48/17 7/49/17 9/7/17 6/50/17
f 30/51/18 17/36/18 16/52/18 31/53/18
f 8/54/19 12/55/19 11/56/19 9/57/19
f 34/58/20 20/39/20 19/59/20 35/60/20
f 38/61/21 22/62/21 24/41/21 39/63/21
f 14/13/22 18/64/22 17/65/22 15/66/22
f 13/32/23 24/67/23 23/68/23 14/69/23
f 18/70/24 21/71/24 20/19/24 16/72/24
f 21/73/25 23/14/25 22/11/25 19/74/25
f 27/75/26 15/76/26 17/65/26 30/77/26
f 1/21/26 28/78/26 29/79/26 4/80/26
f 42/81/27 27/82/27 30/83/27 43/84/27
f 12/85/21 37/86/21 40/87/21 10/88/21
f 47/89/28 38/90/28 39/91/28 48/92/28
f 7/27/20 33/93/20 36/94/20 8/95/20
f 45/96/29 34/97/29 35/98/29 46/99/29
f 4/24/18 29/100/18 32/101/18 5/102/18
f 43/103/30 30/104/30 31/105/30 44/106/30
f 3/107/16 25/108/16 28/109/16 1/110/16
f 41/111/31 26/112/31 27/113/31 42/114/31
f 5/48/5 32/115/5 33/116/5 7/117/5
f 44/118/32 31/119/32 34/120/32 45/121/32
f 8/54/3 36/122/3 37/123/3 12/124/3
f 46/125/33 35/126/33 38/127/33 47/128/33
f 13/32/1 26/112/1 39/91/1 24/129/1
f 41/111/34 25/108/34 40/87/34 48/92/34
f 26/45/35 41/130/35 48/131/35 39/63/35
f 36/132/36 46/133/36 47/134/36 37/135/36
f 32/136/37 44/137/37 45/138/37 33/139/37
f 25/1/38 41/130/38 42/140/38 28/141/38
f 29/142/39 43/143/39 44/144/39 32/145/39
f 33/146/40 45/147/40 46/148/40 36/149/40
f 37/150/41 47/151/41 48/131/41 40/4/41
f 28/152/42 42/153/42 43/154/42 29/155/42
